<svg xmlns="http://www.w3.org/2000/svg" viewBox="0 0 64.1 64.1"><defs><style>.cls-1{fill:#000814;}.cls-2{fill:#ffd200;}.cls-3{fill:#fff;}</style></defs><g id="Layer_2" data-name="Layer 2"><g id="Layer_1-2" data-name="Layer 1"><rect class="cls-1" width="64.1" height="64.1" rx="32.05"/><path class="cls-2" d="M31.39,36.13a3,3,0,0,1,3,3,3,3,0,1,1-3-3Z"/><path class="cls-3" d="M22.65,39.57a1.27,1.27,0,0,1,1.25,1.28,1.25,1.25,0,0,1-2.49-.06A1.25,1.25,0,0,1,22.65,39.57Z"/><path class="cls-3" d="M26.17,39.57a1.28,1.28,0,0,1,1.25,1.28,1.25,1.25,0,1,1-1.25-1.28Z"/><path class="cls-3" d="M20.28,32v7.86a1.85,1.85,0,0,1-.8,1.43l-.11.06a.22.22,0,0,1-.11,0H18.1a1.4,1.4,0,0,1-.34-.13l-.13-.08-.08-.06a1.07,1.07,0,0,1-.16-.14l-.08-.08h0l-.07-.09h0l-.09-.13-.06-.12a1.55,1.55,0,0,1-.18-.51V32a3.33,3.33,0,0,0-2.74-3.23H12.88A3.33,3.33,0,0,0,10.14,32v8.09a1.55,1.55,0,0,1-.18.51.37.37,0,0,1-.07.12.46.46,0,0,1-.08.13h0l-.08.09L9.64,41l-.08.07a1,1,0,0,1-.21.15l-.1.07-.35.15H7.65l-.11-.06-.1-.06-.1-.14a1.79,1.79,0,0,1-.7-1.36V32A6.82,6.82,0,0,1,10,26.14h0a7,7,0,0,1,2.28-.89l.46-.06h1.9a6.69,6.69,0,0,1,2.28.89h0A6.83,6.83,0,0,1,20.28,32Z"/><path class="cls-3" d="M39.81,21.36a1.76,1.76,0,0,1-1.72,1.8h0a1.8,1.8,0,0,1-1.81-1.78v-.71A1.76,1.76,0,0,1,38,18.91h0a1.73,1.73,0,0,1,1.76,1.7v.75Zm0,5.92V40a1.74,1.74,0,0,1-1.71,1.77h-.05a1.78,1.78,0,0,1-1.81-1.74V27.28a1.77,1.77,0,0,1,1.7-1.8H38a1.72,1.72,0,0,1,1.79,1.65Z"/><path class="cls-3" d="M44.07,39.42a8.08,8.08,0,0,1-2.25-5.75,8.47,8.47,0,0,1,2.25-5.74,7.72,7.72,0,0,1,5.63-2.48,7.25,7.25,0,0,1,5.46,2.48,8.24,8.24,0,0,1,2.3,5.74,7.87,7.87,0,0,1-2.3,5.75A7.21,7.21,0,0,1,49.7,41.9,7.64,7.64,0,0,1,44.07,39.42Zm1.29-5.75a5.29,5.29,0,0,0,1.2,3.47,4.44,4.44,0,0,0,3.14,1.21,4.32,4.32,0,0,0,3-1.21A5.06,5.06,0,0,0,54,33.68a4.92,4.92,0,0,0-1.27-3.41,4.6,4.6,0,0,0-3-1.24,4.73,4.73,0,0,0-3.14,1.24A5.15,5.15,0,0,0,45.36,33.67Z"/></g></g></svg>